<?xml version="1.0" encoding="UTF-8"?>
<svg id="Capa_2" data-name="Capa 2" xmlns="http://www.w3.org/2000/svg" viewBox="0 0 1442.56 1678.45">
  <defs>
    <style>
      .cls-1 {
        fill: #1f1e1d;
      }

      .cls-2 {
        fill: #1d1d1b;
      }
    </style>
  </defs>
  <g id="Capa_1-2" data-name="Capa 1">
    <g>
      <path d="M1278.81,865.99c-13.85-11.24-27.66-22.53-41.57-33.71-37.61-30.23-75.24-60.44-112.95-90.55-2.25-1.8-2.96-3.56-2.96-6.32,.07-73.77,.06-147.53,.06-221.3,0-107.6-.03-215.19,.12-322.79,0-4.44-1.19-5.21-5.35-5.19-38.76,.18-77.53,.02-116.29,.22-4.14,.02-4.73-1.22-4.73-4.94,.12-50.07,.14-100.14-.01-150.22-.01-4.07,1-5.09,5.08-5.09,147.01,.12,294.02,.11,441.03,.11,.44,0,.89-.06,1.33-.09V186.24c-40.11,0-80.21,.07-120.32-.11-4.25-.02-5.31,.89-5.31,5.25,.12,223.24,.11,446.48,.12,669.73,0,1.63,.15,3.26,.23,4.89h-38.48Z"/>
      <path d="M.15,431.12c0-79-.45-158.01,.2-237,.3-35.82,5.44-71.1,20.71-104.15C38.81,51.56,69.16,27.74,108.66,14.62,133.38,6.42,158.91,2.76,184.82,1.05c19.66-1.29,39.35-1.31,58.99-.5,34.44,1.42,68.41,5.88,100.73,18.83,47.1,18.87,75.16,54,87.73,102.44,5.51,21.24,8.14,42.87,9.24,64.74,1.21,24.13,.49,48.27,.59,72.4,.14,32.35-.01,64.69,.1,97.04,.01,3.31-.57,4.51-4.28,4.5-54.13-.14-108.27-.13-162.4-.01-3.53,0-4.39-.92-4.38-4.4,.11-57.24-.01-114.48,.12-171.72,.06-27.02-17.35-39.66-39.81-42.06-13.26-1.42-25.86,.49-37.32,7.44-12.34,7.49-18.92,18.41-18.92,33.18,.05,166.05,.02,332.1,.04,498.16,0,21.6,16.27,40.58,38.42,44.43,18.51,3.22,34.93-.97,47.69-15.51,7.43-8.46,9.84-18.84,9.85-29.82,.05-54.85,.08-109.71-.09-164.56-.01-4.13,1.2-4.74,4.93-4.73,53.84,.12,107.67,.12,161.51,0,3.59,0,4.7,.65,4.69,4.51-.16,44.42,.19,88.84-.22,133.26-.21,22.61-6.87,43.45-22.17,60.63-7.53,8.45-17.16,14.72-25.92,21.87-51.7,42.2-103.48,84.3-155.18,126.5-2.8,2.28-5.6,3.25-9.23,3.37-42.36,1.47-84.17-1.51-124.6-15.36-50.73-17.38-81.48-53.02-94.94-104.34C3.09,715.13,.19,688.41,.14,661.41c-.16-76.77-.06-153.53-.06-230.3h.07Z"/>
      <path d="M1028.01,664.59c-11.13-10.07-23.11-19.13-34.75-28.58-57.6-46.74-115.26-93.41-172.91-140.1-20.49-16.59-41.08-33.06-61.41-49.84-3.48-2.88-5.54-2.6-8.82,.08-20.42,16.68-41.02,33.14-61.53,49.7-68.84,55.58-137.67,111.18-206.51,166.77-.56,.46-1.16,.87-2.83,2.12,1.33-6.29,2.39-11.49,3.54-16.67,12.12-54.16,24.23-108.32,36.38-162.47,11.79-52.56,23.66-105.11,35.44-157.68,13.88-61.97,27.69-123.96,41.54-185.94,8.35-37.36,16.74-74.71,25.04-112.09,.6-2.7,1.59-3.77,4.64-3.77,85.45,.1,170.9,.11,256.35,0,3.28,0,4.12,1.08,4.79,4.1,17.4,77.92,34.96,155.8,52.41,233.71,15.66,69.93,31.18,139.9,46.84,209.83,13.84,61.84,27.8,123.65,41.62,185.49,.37,1.67,1.86,3.53,.17,5.35h-.01Zm-227.06-253.62c-16.95-76.23-33.8-151.97-50.64-227.7-8.69,35.1-16.45,70.01-24.2,104.91-8.75,39.41-17.42,78.83-26.32,118.2-.93,4.13,.06,4.73,3.96,4.68,16.25-.22,32.51-.09,48.76-.09h48.43Z"/>
      <path class="cls-1" d="M1028.02,664.6c.1-.26,.19-.52,.29-.79,.12,.08,.24,.17,.36,.25-.22,.17-.45,.35-.67,.52,0,0,.02,.02,.02,.02Z"/>
      <g>
        <path class="cls-2" d="M418,1043.18h161c21.4,0,40.9-2.11,58.48-6.34,17.58-4.21,32.57-11.01,44.95-20.38,12.39-9.36,21.94-21.66,28.67-36.91,6.72-15.24,10.09-33.88,10.09-55.91s-4.67-40.85-13.99-57.57c-4.77-8.53-10.67-15.59-17.71-21.21H418v198.33Zm142.65-165.82c8.56,0,16.51,.28,23.85,.82,7.34,.55,13.6,2.12,18.81,4.69,5.19,2.58,9.33,6.25,12.38,11.02,3.05,4.77,4.59,11.57,4.59,20.38,0,7.35-1.23,13.41-3.67,18.18-2.45,4.77-5.73,8.53-9.86,11.29-4.13,2.76-9.02,4.6-14.68,5.51-5.66,.93-11.85,1.38-18.58,1.38h-47.25v-73.27h34.4Z"/>
        <path class="cls-2" d="M681.75,818.13c5.19-5.69,9.86-12.12,13.99-19.28,4.13-7.17,7.41-15.15,9.86-23.97,2.44-8.81,3.67-18.36,3.67-28.64,0-19.84-3.44-36.17-10.32-49.03-6.88-12.85-16.36-23.04-28.44-30.58-12.08-7.52-26.22-12.76-42.43-15.7-10.8-1.96-22.16-3.25-34.04-3.9-9.29,6.76-18.58,13.52-27.87,20.29-49.4,35.97-98.79,71.94-148.17,107.92v69.61h271.5c-6.74-5.38-14.52-9.42-23.35-12.12,5.19-4.04,10.39-8.9,15.59-14.6Zm-83.94-21.48c-7.04,5.69-15.91,8.54-26.61,8.54h-44.95v-66.11h38.07c5.81,0,11.31,.19,16.51,.55,5.19,.37,9.86,1.57,13.99,3.58,4.13,2.02,7.41,5.15,9.86,9.36,2.44,4.23,3.67,10.19,3.67,17.91,0,11.75-3.52,20.47-10.55,26.17Z"/>
        <path class="cls-2" d="M839.84,844.85l26.3,53.99v144.34h108.25v-146.55l25.45-51.78h-160Z"/>
        <path class="cls-2" d="M1053.52,735.65c-27.48-20.02-54.95-40.04-82.43-60.06-1.36-.99-2.71-1.97-4.07-2.96l-45.83,108.3-56.88-134.42h-121.1l96.63,198.33h160l53.67-109.2Z"/>
      </g>
      <g>
        <path class="cls-2" d="M356.32,1678.45H222.71c-43.82,0-83.37-16.27-118.64-48.84-48.82-45.74-73.22-113.95-73.22-204.6s24.4-157.07,73.22-201.95c35.62-33.43,74.99-50.17,118.11-50.17h134.14c9.26,0,18.35,3.06,27.25,9.13,12.47,8.68,18.7,21.25,18.7,37.74s-6.24,29.08-18.7,37.74c-9.27,6.09-18.35,9.11-27.25,9.11h-92.99c-27.44,0-51.13,10.2-71.08,30.61-27.44,27.5-41.15,70.56-41.15,129.1s13.71,101.62,41.15,129.12c19.59,19.53,43.29,29.27,71.08,29.27h93.52c9.26,0,18.17,3.06,26.72,9.13,12.47,8.68,18.7,21.25,18.7,37.74,0,15.63-6.41,28.22-19.24,37.74-8.91,6.09-17.82,9.11-26.72,9.11Z"/>
        <path class="cls-2" d="M697.82,1340.55v-33c0-15.84-4.99-27.73-14.96-35.65-7.13-6.14-14.61-9.24-22.45-9.24h-164.07c-9.27,0-18.17-2.65-26.72-7.93-12.48-7.91-18.7-20.23-18.7-36.95s6.05-29.04,18.17-36.95c8.19-6.16,16.92-9.24,26.19-9.24h204.68c25.65,0,50.41,10.12,74.29,30.35,32.42,27.28,48.63,66.89,48.63,118.81v285.11c0,24.65-8.38,43.56-25.12,56.75-12.12,9.7-24.58,14.52-37.41,14.52s-25.3-4.82-37.41-14.52c-16.75-12.3-25.12-31.22-25.12-56.75v-130.68c0-14.95-4.99-26.84-14.96-35.65-7.13-6.14-14.61-9.24-22.45-9.24h-92.45c-7.84,0-15.32,3.12-22.45,9.33-9.98,8.86-14.96,20.86-14.96,35.95v62.57c0,15.09,4.98,27.09,14.96,35.95,7.13,6.23,14.61,9.33,22.45,9.33h45.42c8.9,0,17.99,3.04,27.26,9.11,12.46,8.68,18.7,21.27,18.7,37.74s-6.24,28.22-18.7,37.74c-9.27,6.09-18.36,9.11-27.26,9.11h-84.97c-25.65,0-50.42-10.1-74.29-30.35-32.42-27.27-48.63-66.87-48.63-118.81v-39.6c0-51.02,16.21-90.63,48.63-118.79,23.87-19.35,48.63-29.04,74.29-29.04h169.41Z"/>
        <path class="cls-2" d="M865.63,1601.9c0-10.56,1.96-21.13,5.88-31.69l131.47-361.67c8.9-24.62,25.65-36.95,50.24-36.95,21.02,0,38.12,9.69,51.31,29.04,3.2,3.53,5.88,7.48,8.01,11.87l101.01,248.16c2.49,6.18,3.74,13.66,3.74,22.43,0,17.62-5.7,30.83-17.1,39.6-8.55,7.05-17.28,10.56-26.19,10.56-16.03,0-27.25-8.79-33.67-26.39l-57.72-154.45-100.47,289.09c-8.55,24.63-25.48,36.95-50.77,36.95-11.76,0-22.8-3.51-33.13-10.56-21.74-14.95-32.6-36.95-32.6-65.99Z"/>
        <path class="cls-2" d="M1187.35,1248.15c0-27.27,8.73-47.52,26.19-60.73,12.46-10.55,25.65-15.83,39.54-15.83,24.58,0,41.33,12.34,50.24,36.95l131.47,361.67c3.92,10.56,5.88,21.13,5.88,31.69,0,27.28-8.73,47.52-26.19,60.71-12.47,10.56-25.65,15.84-39.55,15.84-24.58,0-41.34-12.32-50.24-36.95l-132-361.68c-3.57-9.67-5.35-20.23-5.35-31.67Z"/>
      </g>
    </g>
  </g>
</svg>