<?xml version="1.0" encoding="UTF-8"?>
<svg id="Capa_2" data-name="Capa 2" xmlns="http://www.w3.org/2000/svg" viewBox="0 0 1728.91 1728.91">
  <defs>
    <style>
      .cls-1 {
        fill: #fff;
      }

      .cls-2 {
        fill: none;
        stroke: #fff;
        stroke-miterlimit: 10;
        stroke-width: 10px;
      }

      .cls-3 {
        fill: #e52429;
      }
    </style>
  </defs>
  <g id="Capa_1-2" data-name="Capa 1">
    <g>
      <path class="cls-1" d="M1097.93,732.36c.08-.22,.16-.43,.24-.65,.1,.07,.2,.14,.3,.21-.19,.14-.37,.28-.55,.43,0,0,.01,.01,.01,.01Z"/>
      <g>
        <path d="M833.92,511.87c13.62-.19,27.24-.08,40.86-.08h40.58c-14.2-63.87-28.32-127.34-42.43-190.8-7.28,29.41-13.78,58.66-20.28,87.91-7.33,33.02-14.6,66.05-22.05,99.05-.78,3.46,.05,3.97,3.32,3.92Z"/>
        <path d="M746.39,958.21c3.46-2.31,6.21-5.46,8.26-9.46,2.05-4,3.08-9.08,3.08-15.23,0-7.39-1.29-13.08-3.84-17.08-2.56-3.99-6.02-7.08-10.38-9.24-4.36-2.15-9.61-3.46-15.76-3.93-6.15-.46-12.81-.69-19.98-.69h-28.83v61.4h39.59c5.64,0,10.82-.38,15.57-1.16,4.74-.76,8.84-2.3,12.3-4.61Z"/>
        <path d="M736.4,790.17c-3.46-1.68-7.37-2.69-11.72-3-4.36-.31-8.97-.46-13.84-.46h-31.9v55.4h37.67c8.97,0,16.4-2.39,22.29-7.16,5.89-4.77,8.84-12.08,8.84-21.93,0-6.47-1.03-11.46-3.08-15.01-2.05-3.53-4.8-6.15-8.26-7.85Z"/>
        <path d="M1723.91,864.45c0-246.94-104.15-469.54-270.91-626.31v85.32c-33.61,0-67.21,.06-100.82-.09-3.56-.02-4.45,.75-4.45,4.4,.1,187.06,.09,374.12,.1,561.19,0,1.37,.13,2.73,.19,4.1h-32.24c-11.61-9.42-23.18-18.88-34.83-28.25-31.52-25.33-63.05-50.64-94.64-75.87-1.89-1.5-2.48-2.99-2.48-5.3,.06-61.81,.05-123.62,.05-185.44,0-90.16-.03-180.32,.1-270.48,0-3.72-1-4.36-4.49-4.35-32.48,.15-64.97,.02-97.45,.18-3.47,.02-3.97-1.02-3.96-4.14,.1-41.96,.11-83.91-.01-125.87-.01-3.41,.84-4.27,4.26-4.26,104.7,.08,209.4,.09,314.1,.09C1250.1,73.92,1065.33,5,864.45,5S494.26,68.28,351,175.17c15.75-3.82,31.83-5.81,48.08-6.88,16.48-1.08,32.97-1.1,49.43-.42,28.86,1.19,57.32,4.93,84.41,15.78,39.46,15.81,62.98,45.25,73.51,85.84,4.62,17.8,6.82,35.92,7.74,54.25,1.01,20.22,.41,40.45,.5,60.67,.12,27.1,0,54.21,.09,81.31,.01,2.78-.48,3.78-3.59,3.77-45.36-.11-90.72-.11-136.08,0-2.96,0-3.68-.77-3.67-3.69,.1-47.96-.01-95.93,.1-143.89,.05-22.64-14.54-33.23-33.36-35.24-11.11-1.19-21.67,.41-31.27,6.24-10.34,6.28-15.86,15.43-15.85,27.8,.04,139.14,.02,278.28,.03,417.42,0,18.1,13.63,34,32.19,37.23,15.51,2.7,29.27-.81,39.96-13,6.22-7.09,8.25-15.79,8.25-24.99,.04-45.96,.07-91.93-.08-137.89-.01-3.46,1-3.97,4.13-3.96,45.11,.1,90.22,.1,135.33,0,3.01,0,3.94,.55,3.93,3.78-.13,37.22,.16,74.44-.19,111.66-.18,18.95-5.75,36.41-18.58,50.8-6.31,7.08-14.38,12.33-21.72,18.32-43.32,35.36-86.71,70.64-130.03,106-2.34,1.91-4.69,2.72-7.74,2.82-35.49,1.23-70.53-1.27-104.41-12.87-42.51-14.56-68.28-44.43-79.55-87.43-5.76-21.95-8.19-44.34-8.23-66.96-.13-64.32-.05-128.65-.05-192.97h.06c0-66.2-.38-132.4,.17-198.59,.21-24.74,3.18-49.18,11.38-72.51C100.86,413.03,5,627.55,5,864.45s88.34,434.2,232.57,587.92c-8.56-26.51-12.85-56.8-12.85-90.89,0-75.2,21.23-131.61,63.71-169.22,31-28.01,65.25-42.04,102.77-42.04h116.72c8.06,0,15.96,2.57,23.71,7.65,10.85,7.28,16.28,17.81,16.28,31.62s-5.43,24.36-16.28,31.62c-8.06,5.1-15.97,7.64-23.71,7.64h-80.91c-23.88,0-44.49,8.55-61.85,25.65-23.88,23.04-35.8,59.12-35.8,108.18s11.93,85.15,35.8,108.19c17.04,16.37,37.67,24.53,61.85,24.53h81.38c8.06,0,15.81,2.57,23.25,7.65,10.85,7.28,16.28,17.81,16.28,31.62,0,13.1-5.58,23.64-16.74,31.62-7.75,5.1-15.51,7.64-23.25,7.64h-116.25c-4.51,0-8.97-.21-13.38-.59,138.27,95.02,305.73,150.65,486.18,150.65s358.95-59.36,499.78-160.18c-5.83-5.06-10.41-11.99-13.73-20.84l-114.85-303.07c-3.1-8.1-4.65-16.95-4.65-26.54,0-22.85,7.59-39.81,22.79-50.89,10.85-8.84,22.32-13.26,34.41-13.26,21.39,0,35.96,10.34,43.71,30.96l114.39,303.05c1.39,3.6,2.48,7.21,3.3,10.81,168.75-156.93,274.32-380.89,274.32-629.51Zm-1075.14-154c10.15-45.38,20.3-90.76,30.48-136.14,9.88-44.04,19.83-88.07,29.69-132.12,11.63-51.93,23.2-103.87,34.81-155.81,7-31.31,14.03-62.61,20.98-93.92,.5-2.27,1.33-3.16,3.89-3.16,71.6,.09,143.2,.09,214.8,0,2.75,0,3.45,.91,4.02,3.43,14.58,65.29,29.3,130.55,43.92,195.83,13.12,58.6,26.13,117.22,39.25,175.82,11.6,51.81,23.29,103.61,34.87,155.43,.31,1.4,1.56,2.95,.14,4.48h-.01c-9.33-8.45-19.36-16.04-29.12-23.96-48.27-39.17-96.58-78.27-144.88-117.39-17.17-13.9-34.42-27.71-51.46-41.77-2.92-2.41-4.64-2.18-7.39,.07-17.11,13.98-34.37,27.77-51.56,41.65-57.68,46.58-115.36,93.16-173.04,139.75-.47,.38-.97,.73-2.37,1.78,1.12-5.27,2-9.63,2.97-13.97Zm-60.54,164.89v-58.33c41.38-30.15,82.76-60.3,124.16-90.43,7.78-5.67,15.57-11.33,23.35-17,9.96,.55,19.47,1.63,28.53,3.27,13.58,2.47,25.43,6.85,35.55,13.16,10.12,6.31,18.07,14.85,23.83,25.62,5.76,10.78,8.65,24.46,8.65,41.09,0,8.62-1.03,16.62-3.07,24-2.05,7.39-4.8,14.08-8.26,20.09-3.46,6-7.37,11.39-11.72,16.15-4.36,4.78-8.71,8.85-13.07,12.23,7.4,2.26,13.91,5.65,19.56,10.16,5.89,4.7,10.84,10.62,14.84,17.77,7.81,14.01,11.72,30.09,11.72,48.24s-2.82,34.09-8.46,46.85c-5.64,12.78-13.64,23.09-24.02,30.93-10.38,7.85-22.94,13.55-37.67,17.08-14.74,3.54-31.07,5.31-49.01,5.31h-134.91v-166.19Zm325.63,637.67c0,20.66-7.29,36.5-21.85,47.56-10.55,8.13-21.39,12.17-32.55,12.17s-22.01-4.04-32.55-12.17c-14.58-10.31-21.86-26.16-21.86-47.56v-109.5c0-12.53-4.34-22.49-13.02-29.87-6.21-5.15-12.71-7.74-19.53-7.74h-80.44c-6.82,0-13.33,2.61-19.53,7.82-8.68,7.43-13.02,17.48-13.02,30.12v52.43c0,12.65,4.34,22.7,13.02,30.12,6.2,5.22,12.71,7.82,19.53,7.82h39.52c7.74,0,15.65,2.55,23.72,7.64,10.85,7.28,16.27,17.82,16.27,31.62s-5.43,23.64-16.27,31.62c-8.07,5.1-15.97,7.64-23.72,7.64h-73.93c-22.32,0-43.87-8.46-64.64-25.43-28.21-22.85-42.31-56.03-42.31-99.55v-33.18c0-42.76,14.1-75.94,42.31-99.54,20.77-16.22,42.32-24.33,64.64-24.33h147.4v-27.65c0-13.28-4.34-23.24-13.02-29.87-6.21-5.15-12.71-7.74-19.53-7.74h-142.76c-8.06,0-15.81-2.22-23.25-6.65-10.86-6.63-16.28-16.95-16.28-30.96s5.27-24.33,15.81-30.96c7.13-5.16,14.72-7.74,22.79-7.74h178.1c22.32,0,43.86,8.48,64.64,25.43,28.2,22.86,42.31,56.05,42.31,99.55v238.9Zm-53.12-803.86h101.47l47.66,112.63,38.4-90.75c1.14,.83,2.27,1.65,3.41,2.48,23.03,16.77,46.05,33.55,69.07,50.32l-44.97,91.5-21.33,43.39v122.8h-90.71v-120.95l-22.04-45.24-80.97-166.19Zm393.04,682.19c2.16,5.18,3.25,11.45,3.25,18.8,0,14.76-4.96,25.83-14.88,33.18-7.44,5.91-15.04,8.85-22.78,8.85-13.95,0-23.71-7.37-29.3-22.11l-50.22-129.42-87.42,242.24c-7.44,20.64-22.17,30.96-44.17,30.96-10.23,0-19.84-2.94-28.83-8.85-18.91-12.53-28.37-30.96-28.37-55.3,0-8.85,1.71-17.7,5.12-26.55l114.39-303.05c7.75-20.63,22.32-30.96,43.71-30.96,18.29,0,33.17,8.12,44.64,24.33,2.79,2.96,5.12,6.27,6.97,9.95l87.89,207.94Z"/>
        <path class="cls-1" d="M244.35,528.66h-.06c0,64.32-.09,128.65,.05,192.97,.05,22.62,2.48,45.01,8.23,66.96,11.28,43,37.04,72.87,79.55,87.43,33.88,11.61,68.91,14.1,104.41,12.87,3.05-.11,5.39-.91,7.74-2.82,43.32-35.36,86.71-70.63,130.03-106,7.34-5.99,15.41-11.24,21.72-18.32,12.83-14.39,18.4-31.85,18.58-50.8,.35-37.22,.05-74.44,.19-111.66,.01-3.23-.92-3.79-3.93-3.78-45.11,.1-90.22,.1-135.33,0-3.13,0-4.14,.5-4.13,3.96,.14,45.96,.12,91.93,.08,137.89,0,9.2-2.03,17.9-8.25,24.99-10.69,12.18-24.45,15.7-39.96,13-18.56-3.23-32.19-19.13-32.19-37.23-.02-139.14,0-278.28-.03-417.42,0-12.37,5.52-21.52,15.85-27.8,9.6-5.83,20.16-7.43,31.27-6.24,18.82,2.02,33.42,12.6,33.36,35.24-.11,47.96,0,95.92-.1,143.89,0,2.92,.71,3.7,3.67,3.69,45.36-.1,90.72-.11,136.08,0,3.11,0,3.6-1,3.59-3.77-.1-27.1,.03-54.21-.09-81.31-.09-20.22,.51-40.45-.5-60.67-.92-18.33-3.12-36.45-7.74-54.25-10.53-40.59-34.05-70.03-73.51-85.84-27.09-10.85-55.55-14.59-84.41-15.78-16.46-.68-32.95-.66-49.43,.42-16.25,1.07-32.33,3.06-48.08,6.88-33.69,25.14-65.47,52.69-95.1,82.39-8.2,23.33-11.18,47.76-11.38,72.51-.55,66.19-.17,132.39-.17,198.59Z"/>
        <path class="cls-1" d="M1078.06,193.56c.13,41.96,.12,83.91,.01,125.87,0,3.12,.49,4.15,3.96,4.14,32.48-.16,64.97-.04,97.45-.18,3.49-.02,4.49,.62,4.49,4.35-.13,90.16-.1,180.32-.1,270.48,0,61.81,.01,123.62-.05,185.44,0,2.31,.6,3.79,2.48,5.3,31.6,25.23,63.13,50.54,94.64,75.87,11.65,9.36,23.22,18.83,34.83,28.25h32.24c-.07-1.37-.19-2.73-.19-4.1,0-187.06,0-374.12-.1-561.19,0-3.65,.89-4.41,4.45-4.4,33.61,.15,67.21,.09,100.82,.09v-85.32c-18.14-17.05-37.01-33.32-56.57-48.76-104.7,0-209.4,0-314.1-.09-3.42,0-4.27,.85-4.26,4.26Z"/>
        <path class="cls-1" d="M821.21,582.9c17.19-13.88,34.45-27.67,51.56-41.65,2.75-2.25,4.47-2.48,7.39-.07,17.04,14.06,34.29,27.86,51.46,41.77,48.3,39.12,96.62,78.23,144.88,117.39,9.76,7.92,19.79,15.51,29.12,23.95h.01c1.42-1.51,.17-3.07-.14-4.47-11.58-51.82-23.27-103.61-34.87-155.43-13.12-58.6-26.12-117.23-39.25-175.82-14.62-65.28-29.34-130.54-43.92-195.83-.56-2.53-1.27-3.44-4.02-3.43-71.6,.09-143.2,.09-214.8,0-2.56,0-3.39,.89-3.89,3.16-6.96,31.32-13.99,62.61-20.98,93.92-11.61,51.94-23.18,103.88-34.81,155.81-9.87,44.05-19.81,88.08-29.69,132.12-10.18,45.37-20.33,90.76-30.48,136.14-.97,4.34-1.85,8.7-2.97,13.97,1.4-1.05,1.9-1.4,2.37-1.78,57.68-46.58,115.36-93.17,173.04-139.75Zm9.39-74.95c7.45-32.99,14.72-66.03,22.05-99.05,6.49-29.25,12.99-58.5,20.28-87.91,14.11,63.46,28.23,126.93,42.43,190.8h-40.58c-13.62,0-27.24-.11-40.86,.08-3.27,.05-4.1-.46-3.32-3.92Z"/>
        <path class="cls-3" d="M772.15,1036.22c14.73-3.53,27.29-9.23,37.67-17.08,10.38-7.85,18.38-18.15,24.02-30.93,5.63-12.77,8.46-28.39,8.46-46.85s-3.91-34.23-11.72-48.24c-3.99-7.15-8.94-13.07-14.84-17.77h-227.5v166.19h134.91c17.93,0,34.27-1.77,49.01-5.31Zm-93.21-72.24v-61.4h28.83c7.17,0,13.84,.23,19.98,.69,6.15,.46,11.4,1.78,15.76,3.93,4.35,2.16,7.81,5.24,10.38,9.24,2.56,4,3.84,9.69,3.84,17.08,0,6.15-1.03,11.23-3.08,15.23-2.05,4-4.8,7.15-8.26,9.46-3.46,2.31-7.56,3.85-12.3,4.61-4.74,.78-9.93,1.16-15.57,1.16h-39.59Z"/>
        <path class="cls-3" d="M796.17,865.19c4.35-3.38,8.71-7.46,13.07-12.23,4.35-4.76,8.26-10.16,11.72-16.15,3.46-6,6.21-12.7,8.26-20.09,2.05-7.38,3.07-15.38,3.07-24,0-16.62-2.88-30.31-8.65-41.09-5.77-10.77-13.71-19.31-23.83-25.62-10.12-6.31-21.97-10.69-35.55-13.16-9.05-1.64-18.57-2.72-28.53-3.27-7.78,5.67-15.57,11.33-23.35,17-41.39,30.14-82.78,60.28-124.16,90.43v58.33h227.5c-5.65-4.51-12.17-7.9-19.56-10.16Zm-57.27-30.24c-5.9,4.77-13.33,7.16-22.29,7.16h-37.67v-55.4h31.9c4.87,0,9.48,.16,13.84,.46,4.35,.31,8.26,1.31,11.72,3,3.46,1.7,6.21,4.31,8.26,7.85,2.05,3.54,3.08,8.54,3.08,15.01,0,9.85-2.95,17.16-8.84,21.93Z"/>
        <path class="cls-3" d="M963.75,1041.53h90.71v-122.8l21.33-43.39h-134.07l22.04,45.24v120.95Z"/>
        <path class="cls-3" d="M1120.75,783.85c-23.02-16.77-46.05-33.55-69.07-50.32-1.14-.83-2.27-1.65-3.41-2.48l-38.4,90.75-47.66-112.63h-101.47l80.97,166.19h134.07l44.97-91.5Z"/>
        <path class="cls-1" d="M507.91,1573.85c7.74,0,15.5-2.54,23.25-7.64,11.16-7.98,16.74-18.53,16.74-31.62,0-13.82-5.43-24.35-16.28-31.62-7.44-5.09-15.19-7.65-23.25-7.65h-81.38c-24.18,0-44.8-8.16-61.85-24.53-23.88-23.04-35.8-59.11-35.8-108.19s11.93-85.14,35.8-108.18c17.36-17.1,37.97-25.65,61.85-25.65h80.91c7.74,0,15.65-2.54,23.71-7.64,10.85-7.26,16.28-17.81,16.28-31.62s-5.43-24.35-16.28-31.62c-7.75-5.09-15.66-7.65-23.71-7.65h-116.72c-37.51,0-71.77,14.03-102.77,42.04-42.47,37.61-63.71,94.02-63.71,169.22,0,34.09,4.29,64.38,12.85,90.89,42.36,45.15,89.53,85.71,140.71,120.88,4.41,.38,8.87,.59,13.38,.59h116.25Z"/>
        <path class="cls-1" d="M871.55,1174.56c-20.78-16.95-42.32-25.43-64.64-25.43h-178.1c-8.07,0-15.66,2.58-22.79,7.74-10.54,6.63-15.81,16.97-15.81,30.96s5.42,24.33,16.28,30.96c7.44,4.43,15.18,6.65,23.25,6.65h142.76c6.82,0,13.33,2.6,19.53,7.74,8.67,6.63,13.02,16.59,13.02,29.87v27.65h-147.4c-22.32,0-43.87,8.12-64.64,24.33-28.21,23.6-42.31,56.78-42.31,99.54v33.18c0,43.52,14.1,76.7,42.31,99.55,20.77,16.97,42.32,25.43,64.64,25.43h73.93c7.74,0,15.65-2.54,23.72-7.64,10.85-7.98,16.27-18.53,16.27-31.62,0-13.8-5.43-24.35-16.27-31.62-8.07-5.09-15.97-7.64-23.72-7.64h-39.52c-6.82,0-13.33-2.6-19.53-7.82-8.68-7.43-13.02-17.48-13.02-30.12v-52.43c0-12.65,4.34-22.7,13.02-30.12,6.2-5.21,12.71-7.82,19.53-7.82h80.44c6.82,0,13.33,2.6,19.53,7.74,8.67,7.38,13.02,17.34,13.02,29.87v109.5c0,21.39,7.28,37.25,21.86,47.56,10.54,8.13,21.39,12.17,32.55,12.17s22.01-4.04,32.55-12.17c14.57-11.06,21.85-26.9,21.85-47.56v-238.9c0-43.51-14.11-76.69-42.31-99.55Z"/>
        <path class="cls-1" d="M1331.9,1180.1c-7.75-20.63-22.32-30.96-43.71-30.96-12.09,0-23.56,4.43-34.41,13.26-15.19,11.07-22.79,28.04-22.79,50.89,0,9.59,1.55,18.44,4.65,26.54l114.85,303.07c3.32,8.85,7.9,15.78,13.73,20.84,29.94-21.44,58.46-44.75,85.36-69.76-.82-3.6-1.91-7.21-3.3-10.81l-114.39-303.05Z"/>
        <path class="cls-1" d="M1158.92,1173.47c-11.47-16.22-26.35-24.33-44.64-24.33-21.39,0-35.97,10.34-43.71,30.96l-114.39,303.05c-3.41,8.85-5.12,17.7-5.12,26.55,0,24.33,9.45,42.77,28.37,55.3,8.99,5.91,18.6,8.85,28.83,8.85,22.01,0,36.74-10.32,44.17-30.96l87.42-242.24,50.22,129.42c5.58,14.75,15.35,22.11,29.3,22.11,7.75,0,15.35-2.94,22.78-8.85,9.92-7.35,14.88-18.42,14.88-33.18,0-7.35-1.09-13.62-3.25-18.8l-87.89-207.94c-1.86-3.68-4.18-6.99-6.97-9.95Z"/>
      </g>
      <circle class="cls-2" cx="864.45" cy="864.45" r="859.45"/>
    </g>
  </g>
</svg>